<?xml version="1.0" encoding="UTF-8" standalone="no"?>
<svg width="40px" height="64px" viewBox="0 0 40 64" version="1.1" xmlns="http://www.w3.org/2000/svg" xmlns:xlink="http://www.w3.org/1999/xlink" xmlns:sketch="http://www.bohemiancoding.com/sketch/ns">
    <!-- Generator: Sketch 3.2.2 (9983) - http://www.bohemiancoding.com/sketch -->
    <title>Rectangle 34</title>
    <desc>Created with Sketch.</desc>
    <defs></defs>
    <g id="Welcome" stroke="none" stroke-width="1" fill="none" fill-rule="evenodd" sketch:type="MSPage">
        <g id="Desktop-HD" sketch:type="MSArtboardGroup" transform="translate(-700.000000, -876.000000)" fill="#CD9800">
            <path d="M724,924 L732,924 L732,932 L724,932 L724,924 Z M716,932 L724,932 L724,940 L716,940 L716,932 Z M716,876 L724,876 L724,892 L716,892 L716,876 Z M700,916 L708,916 L708,924 L700,924 L700,916 Z M732,916 L740,916 L740,924 L732,924 L732,916 Z M708,916 L716,916 L716,924 L708,924 L708,916 Z M716,892 L724,892 L724,932 L716,932 L716,892 Z M724,916 L732,916 L732,924 L724,924 L724,916 Z M708,924 L716,924 L716,932 L708,932 L708,924 Z" id="Rectangle-34" sketch:type="MSShapeGroup"></path>
        </g>
    </g>
</svg>